<?xml version="1.0" standalone="no"?>
<!DOCTYPE svg PUBLIC "-//W3C//DTD SVG 20010904//EN"
 "http://www.w3.org/TR/2001/REC-SVG-20010904/DTD/svg10.dtd">
<svg version="1.0" xmlns="http://www.w3.org/2000/svg"
 width="260.000000pt" height="260.000000pt" viewBox="0 0 260.000000 260.000000"
 preserveAspectRatio="xMidYMid meet">
<metadata>
Created by potrace 1.14, written by Peter Selinger 2001-2017
</metadata>
<g transform="translate(0.000000,260.000000) scale(0.100000,-0.100000)"
fill="#000000" stroke="none">
<path d="M1535 1940 c-3 -5 -1 -10 4 -10 6 0 11 -5 11 -11 0 -5 -4 -8 -9 -4
-5 3 -13 1 -16 -5 -4 -6 -1 -9 6 -8 6 2 14 -3 17 -11 3 -8 0 -11 -7 -7 -6 4
-11 2 -11 -3 0 -6 5 -11 10 -11 6 0 10 -5 10 -11 0 -5 -5 -7 -10 -4 -16 10 -7
-18 10 -32 13 -11 12 -12 -4 -6 -13 4 -17 3 -12 -5 4 -7 2 -12 -6 -12 -10 0
-9 -3 2 -9 8 -6 19 -7 25 -3 5 3 4 -2 -4 -11 -7 -9 -18 -14 -24 -10 -6 3 -7 1
-3 -5 4 -7 0 -12 -11 -13 -11 0 -13 -3 -5 -6 7 -3 23 2 36 10 18 13 23 13 23
2 0 -8 -4 -12 -8 -10 -15 10 -19 -29 -4 -42 8 -7 10 -8 5 -1 -6 7 -10 15 -10
19 0 9 59 24 78 20 6 -1 12 4 12 10 0 7 3 9 6 6 4 -4 2 -13 -4 -20 -9 -11 -7
-13 8 -12 11 1 23 5 27 10 5 4 1 5 -7 0 -12 -6 -12 -5 -3 5 9 10 15 10 28 -4
21 -20 32 -21 15 0 -11 12 -11 15 1 12 8 -2 20 -10 27 -18 8 -8 11 -10 8 -4
-3 7 1 17 9 24 12 10 13 16 4 26 -9 11 -8 14 0 14 7 0 9 5 4 12 -11 18 -10 52
2 60 6 5 5 8 -4 8 -10 0 -11 3 -2 14 9 11 9 16 0 21 -8 6 -7 10 2 16 11 7 11
9 1 9 -7 0 -10 5 -7 10 4 6 -33 10 -104 10 -62 0 -112 -4 -116 -10z"/>
<path d="M23 1758 c1 -7 -3 -12 -9 -11 -8 2 -12 -33 -13 -113 -1 -79 1 -114 9
-109 5 3 10 0 10 -7 0 -8 3 -9 8 -3 11 15 38 17 40 3 8 -78 7 -126 -2 -121 -8
5 -8 3 0 -8 6 -8 9 -26 8 -42 -2 -19 1 -25 9 -20 7 4 7 1 -1 -10 -8 -9 -11
-21 -8 -26 4 -5 2 -13 -4 -16 -7 -4 -7 -12 -2 -18 9 -13 8 -79 -2 -95 -3 -6
-2 -13 3 -16 4 -3 7 -20 5 -38 -2 -18 1 -35 8 -40 9 -5 10 -8 1 -8 -7 0 -10
-12 -8 -30 3 -21 1 -28 -7 -24 -7 5 -8 2 -3 -6 5 -7 9 -35 9 -61 1 -35 -3 -50
-16 -58 -10 -6 -19 -7 -23 -1 -3 5 -12 6 -21 3 -12 -4 -15 -24 -13 -107 2
-107 5 -126 21 -126 6 0 4 8 -3 17 -13 17 -12 16 14 0 20 -13 32 -15 46 -7 24
12 34 13 27 2 -3 -5 1 -9 10 -9 10 0 12 7 8 21 -4 15 -3 17 4 7 6 -8 15 -10
23 -5 11 6 12 5 2 -7 -11 -14 -9 -15 15 -14 15 2 36 6 46 10 12 5 17 5 13 -2
-3 -5 0 -10 9 -10 10 0 12 7 8 21 -4 15 -3 17 4 7 6 -8 15 -10 23 -5 11 6 12
5 2 -7 -11 -14 -9 -15 15 -14 15 2 36 6 46 10 12 5 17 5 13 -2 -3 -5 0 -10 9
-10 10 0 12 7 8 21 -4 15 -3 17 4 7 6 -8 15 -10 23 -5 11 6 12 5 2 -7 -11 -14
-9 -15 15 -14 15 2 36 6 46 10 12 5 17 5 13 -2 -7 -12 29 -10 40 2 5 4 3 5 -3
2 -7 -4 -18 1 -25 11 -12 15 -12 16 2 5 11 -9 19 -9 26 -2 8 8 13 7 18 -2 6
-8 4 -10 -6 -4 -12 7 -12 6 -1 -7 16 -20 49 -20 49 -1 0 10 -4 10 -11 3 -14
-14 -26 -13 -20 3 2 7 15 13 29 13 14 0 21 -4 17 -11 -3 -5 2 -4 11 4 9 7 23
11 32 8 8 -4 17 -1 21 5 5 7 2 8 -6 3 -9 -5 -11 -4 -6 4 6 9 11 9 24 -1 9 -7
13 -8 10 -3 -3 6 6 19 20 29 14 11 22 14 18 8 -5 -8 -2 -10 8 -6 9 3 16 12 16
19 0 17 35 47 45 38 4 -5 5 3 2 15 -6 24 -5 24 16 5 16 -14 19 -14 9 -1 -9 11
-10 18 -2 23 6 3 8 10 5 15 -3 4 2 10 10 14 9 3 12 12 8 22 -4 11 -2 15 4 11
17 -10 9 23 -8 35 -11 7 -8 9 9 5 17 -4 21 -2 13 7 -10 12 -10 34 1 51 7 12
-16 48 -25 38 -4 -3 -7 5 -7 18 0 14 -5 30 -12 37 -9 9 -9 12 1 12 7 0 9 5 6
10 -4 6 -10 8 -15 5 -4 -3 -14 3 -21 12 -10 12 -10 14 -1 9 6 -4 12 -5 12 -2
0 6 -57 37 -66 35 -3 0 -9 3 -12 7 -4 4 -2 4 5 0 6 -3 15 -1 19 6 4 7 4 10 -1
6 -4 -4 -17 -3 -28 3 -15 9 -18 8 -11 -3 4 -7 -2 -5 -14 5 -11 11 -18 25 -15
34 5 12 7 12 15 1 7 -11 11 -10 21 3 6 9 18 14 26 11 9 -3 11 0 6 8 -6 10 -4
12 8 7 10 -4 16 -2 14 6 -1 7 3 11 10 10 7 -2 10 6 8 17 -3 17 -1 19 15 10 16
-9 18 -8 13 6 -4 11 -2 15 4 11 6 -4 11 -1 10 6 -1 35 4 48 16 41 6 -4 9 -4 5
1 -4 4 -2 15 5 23 11 13 9 14 -13 2 -23 -12 -24 -12 -12 3 8 9 11 21 8 26 -4
5 -1 13 5 17 7 4 9 3 5 -4 -3 -6 -1 -14 5 -18 8 -4 9 -3 5 4 -4 7 -1 12 6 12
10 0 9 3 -2 10 -8 5 -11 12 -7 16 4 4 1 14 -6 22 -8 11 -8 14 0 9 22 -13 24
11 2 27 -15 10 -22 26 -22 50 -1 20 -5 36 -10 36 -4 0 -5 6 -1 13 5 7 0 6 -11
-3 -10 -8 -16 -10 -12 -3 4 6 1 18 -7 26 -8 8 -12 18 -8 22 4 5 -1 5 -10 2
-10 -4 -18 -2 -18 4 0 6 -6 7 -12 3 -8 -5 -8 -1 2 12 8 10 10 16 6 12 -5 -4
-15 -3 -23 3 -7 6 -22 9 -33 6 -10 -3 -19 -2 -18 2 2 22 -4 29 -24 23 -16 -4
-19 -2 -13 9 8 12 6 12 -8 0 -12 -9 -17 -10 -17 -2 0 7 -4 10 -9 7 -14 -9 -42
5 -35 18 3 6 -2 2 -10 -8 -14 -17 -20 -16 -18 4 0 3 -8 6 -18 6 -14 0 -16 -4
-9 -12 8 -9 5 -11 -10 -7 -12 3 -18 10 -14 16 3 6 1 7 -5 3 -7 -4 -12 -2 -12
4 0 6 -5 8 -10 5 -8 -5 -8 -11 0 -20 9 -11 7 -12 -9 -8 -12 3 -19 8 -17 12 3
4 -4 7 -14 7 -10 0 -16 -4 -14 -8 3 -4 1 -8 -5 -8 -5 0 -12 6 -14 13 -4 10 -6
10 -6 0 -1 -7 -6 -13 -12 -13 -5 0 -7 6 -3 13 6 10 4 10 -7 0 -20 -19 -33 -16
-18 5 7 9 0 6 -15 -8 -16 -14 -26 -20 -23 -14 4 7 0 15 -9 18 -9 4 -13 2 -8
-5 4 -7 1 -10 -7 -7 -8 3 -13 11 -11 17 1 7 -2 10 -8 6 -6 -3 -8 -11 -5 -16 4
-5 -1 -9 -10 -9 -9 0 -14 4 -10 10 3 5 -8 5 -26 -2 -25 -8 -33 -8 -40 3 -7 11
-9 9 -9 -6 -1 -15 -4 -13 -14 10 -10 25 -13 26 -19 12 -5 -13 -3 -16 6 -11 8
6 8 3 -1 -8 -14 -17 -42 -14 -42 4 0 5 -5 6 -10 3 -6 -4 -7 -12 -3 -18 4 -7 0
-6 -10 2 -20 16 -23 26 -4 15 8 -5 8 -2 -2 9 -16 20 -22 22 -18 5z m353 -237
c-2 -3 6 -6 19 -6 13 0 21 3 18 7 -7 12 41 5 49 -7 5 -6 8 -5 8 3 0 19 20 14
21 -5 1 -17 2 -17 6 -1 4 15 8 16 25 7 15 -8 19 -8 13 1 -12 20 29 7 45 -15 8
-11 14 -22 13 -25 -1 -3 3 -11 9 -17 7 -9 7 -13 -1 -13 -7 0 -9 -5 -5 -12 5
-7 2 -9 -8 -6 -9 4 -15 0 -15 -8 0 -8 7 -13 15 -12 8 2 17 -4 19 -12 4 -13 3
-13 -6 0 -9 12 -11 9 -11 -16 0 -16 6 -37 13 -44 10 -13 10 -13 -3 -2 -20 17
-35 15 -19 -4 10 -13 10 -17 -2 -25 -19 -12 -42 -11 -34 1 4 6 10 8 15 5 5 -3
11 -1 14 4 7 11 -13 9 -32 -3 -25 -15 -72 -13 -73 3 0 14 -1 14 -7 1 -4 -9
-22 -15 -44 -16 -22 -1 -35 3 -31 9 4 6 0 6 -12 0 -20 -11 -62 -5 -72 10 -4 7
0 8 12 3 18 -6 18 -6 2 12 -20 22 -22 36 -4 26 9 -6 9 -4 -1 8 -10 12 -10 18
-1 23 8 6 7 10 -2 16 -12 8 -12 10 0 18 9 6 10 11 2 15 -6 4 -11 12 -11 17 0
6 6 7 13 3 8 -5 8 -2 -2 9 -11 14 -11 17 0 17 11 0 11 2 2 8 -9 6 -6 11 8 21
12 7 18 8 15 2 -4 -7 -1 -8 8 -5 9 3 13 10 10 15 -3 5 2 6 10 3 9 -3 14 -9 12
-13z m459 -31 c3 -6 -1 -7 -9 -4 -18 7 -21 14 -7 14 6 0 13 -4 16 -10z m-459
-402 c-3 -13 -3 -17 0 -10 3 6 11 9 16 6 6 -4 8 -2 5 3 -4 6 2 13 13 16 22 6
28 -8 8 -16 -7 -2 -1 -4 14 -3 14 0 24 4 22 7 -2 4 3 9 11 13 8 3 14 2 14 -2
-3 -19 2 -26 10 -13 5 8 19 15 30 16 11 1 18 -1 16 -5 -2 -4 8 -12 23 -19 25
-11 26 -10 8 4 -11 8 -15 15 -9 15 7 0 15 -5 18 -10 4 -6 12 -7 18 -3 7 3 3
-4 -8 -16 -19 -22 -19 -23 -1 -20 11 2 21 -3 23 -11 4 -13 3 -13 -6 0 -8 12
-11 8 -11 -17 0 -17 4 -34 10 -38 5 -3 0 -15 -11 -26 -11 -11 -18 -24 -14 -27
3 -4 10 -1 14 7 6 10 10 9 15 -5 6 -16 -22 -60 -32 -50 -2 3 -15 1 -28 -4 -15
-6 -26 -6 -30 1 -4 8 -9 7 -15 -2 -7 -12 -9 -12 -9 0 0 11 -3 11 -15 1 -9 -7
-15 -8 -15 -2 0 11 -18 11 -37 -1 -8 -5 -13 -4 -13 2 0 13 -22 10 -32 -4 -5
-6 -8 -5 -8 4 0 10 -4 11 -13 3 -8 -7 -19 -6 -37 3 -15 9 -19 14 -10 15 13 0
13 2 1 9 -12 8 -13 14 -3 36 7 15 8 24 2 20 -12 -8 -13 5 0 25 6 10 4 20 -7
33 -16 17 -16 17 3 11 17 -7 17 -6 5 9 -7 9 -9 17 -3 17 5 0 9 7 8 16 0 9 5
19 13 22 8 2 11 0 8 -5 -3 -5 0 -10 8 -10 8 0 12 4 9 8 -3 6 7 14 24 18 2 1 1
-9 -2 -21z m458 -99 c-3 -5 -10 -7 -15 -3 -5 3 -7 10 -3 15 3 5 10 7 15 3 5
-3 7 -10 3 -15z m-762 -313 c7 4 8 2 4 -4 -11 -18 -26 -14 -25 6 0 10 3 12 6
4 2 -6 10 -9 15 -6z m120 0 c7 4 8 2 4 -4 -11 -18 -26 -14 -25 6 0 10 3 12 6
4 2 -6 10 -9 15 -6z m120 0 c7 4 8 2 4 -4 -11 -18 -26 -14 -25 6 0 10 3 12 6
4 2 -6 10 -9 15 -6z m126 6 c15 12 16 11 3 -4 -7 -10 -17 -18 -22 -18 -5 0 -9
8 -8 18 0 11 2 12 6 4 4 -10 8 -10 21 0z"/>
<path d="M579 1488 c-6 -21 -5 -38 1 -38 5 0 8 9 7 20 -1 17 -5 26 -8 18z"/>
<path d="M503 1085 c0 -8 4 -12 9 -9 5 3 6 10 3 15 -9 13 -12 11 -12 -6z"/>
<path d="M573 985 c0 -8 4 -15 9 -15 4 0 8 4 8 9 0 6 -4 12 -8 15 -5 3 -9 -1
-9 -9z"/>
<path d="M587 923 c-4 -3 -7 -11 -7 -17 0 -6 5 -5 12 2 6 6 9 14 7 17 -3 3 -9
2 -12 -2z"/>
<path d="M1141 1756 c-1 -16 -3 -17 -18 -5 -16 13 -17 12 -4 -3 7 -10 18 -15
24 -11 5 3 7 1 4 -4 -4 -6 -17 -8 -30 -6 -15 3 -28 -2 -38 -14 -13 -16 -13
-17 4 -4 20 16 20 16 8 -27 -6 -20 -6 -30 0 -27 5 4 9 -1 9 -10 0 -9 -4 -14
-9 -10 -5 3 -13 0 -17 -6 -4 -8 -3 -9 4 -5 7 4 12 2 12 -4 0 -6 4 -8 10 -5 5
3 7 0 4 -9 -3 -8 -13 -12 -22 -9 -14 4 -14 3 -3 -5 11 -8 12 -14 3 -24 -12
-15 1 -38 23 -38 5 0 3 5 -5 11 -13 9 -13 10 0 6 8 -2 14 -11 12 -21 -4 -21 7
-21 25 2 8 9 12 12 9 5 -4 -6 -2 -14 4 -18 5 -3 10 -1 10 6 0 8 5 7 17 -2 9
-8 14 -9 11 -4 -4 6 2 11 12 11 10 0 17 -3 15 -6 -2 -3 5 -6 15 -6 15 0 17 3
7 15 -10 12 -9 13 10 3 12 -7 32 -12 45 -12 18 0 20 -2 8 -10 -12 -7 -11 -12
5 -31 11 -12 14 -19 6 -14 -11 6 -13 4 -8 -7 3 -9 0 -21 -6 -28 -9 -10 -9 -12
4 -7 11 3 15 -1 14 -14 -1 -10 -5 -22 -10 -26 -4 -5 -5 -2 0 6 6 10 4 12 -4 7
-9 -6 -8 -12 4 -26 15 -17 15 -19 -2 -29 -15 -9 -15 -10 -2 -11 9 0 16 -7 16
-15 0 -8 -4 -12 -8 -10 -4 3 -10 -2 -13 -11 -4 -10 -2 -13 6 -8 8 5 9 2 5 -9
-3 -9 0 -23 8 -31 13 -12 12 -15 -1 -20 -10 -4 -13 -2 -8 6 5 7 3 8 -5 3 -9
-5 -10 -10 -2 -18 14 -14 14 -40 0 -31 -6 3 -3 -6 7 -22 11 -15 14 -25 7 -21
-16 10 -22 -14 -9 -37 8 -14 8 -20 -2 -23 -9 -3 -7 -9 6 -21 10 -10 13 -14 6
-9 -7 4 -14 1 -18 -8 -3 -9 -2 -13 4 -10 6 3 11 -2 11 -12 2 -24 2 -25 -7 -47
-5 -12 -4 -17 3 -13 5 3 10 0 10 -8 0 -8 -4 -12 -8 -10 -4 3 -10 -2 -13 -11
-3 -8 -2 -13 3 -10 5 3 12 -1 15 -10 4 -10 2 -13 -6 -8 -8 5 -9 1 -4 -12 4
-10 4 -16 1 -12 -4 3 -20 2 -36 -2 -18 -5 -31 -5 -35 2 -4 6 -10 5 -15 -3 -5
-8 -9 -9 -9 -4 0 6 -9 11 -20 11 -11 0 -20 -4 -20 -9 0 -4 -6 -5 -12 0 -19 11
-39 13 -32 1 3 -5 -2 -8 -11 -6 -11 2 -21 -6 -26 -19 -5 -13 -5 -23 0 -23 5 0
11 6 14 13 2 6 4 -5 2 -26 -1 -20 -4 -40 -8 -43 -3 -3 -4 5 -3 18 2 15 -2 25
-10 25 -9 0 -10 -5 -3 -19 7 -12 6 -18 -1 -18 -6 0 -4 -7 4 -16 21 -21 20 -35
-1 -28 -15 5 -16 4 -3 -5 12 -9 13 -13 2 -20 -11 -6 -10 -10 3 -15 10 -3 15
-12 11 -21 -6 -17 -6 -17 46 -19 20 -1 34 2 32 6 -8 13 11 9 25 -5 11 -10 13
-9 8 5 -4 12 -2 15 9 11 7 -3 14 1 14 8 0 7 3 9 6 6 4 -4 2 -12 -4 -20 -9 -10
0 -12 43 -12 29 0 57 3 61 7 3 4 -2 6 -13 4 -12 -3 -20 1 -20 10 0 9 4 11 12
4 7 -6 16 -5 25 3 10 10 11 9 5 -2 -6 -11 -4 -13 10 -7 14 5 16 4 6 -7 -9 -12
-6 -14 18 -13 16 1 33 4 37 8 4 4 -2 6 -13 4 -12 -3 -20 1 -20 10 0 9 4 11 12
4 7 -6 16 -5 25 3 10 10 11 9 5 -2 -6 -11 -4 -13 10 -7 14 5 16 4 6 -7 -9 -12
-6 -14 18 -13 16 1 33 4 37 8 4 4 -2 6 -13 4 -12 -3 -20 1 -20 10 0 9 4 11 12
4 7 -6 16 -5 25 3 10 10 11 9 5 -2 -6 -11 -4 -13 10 -7 14 5 16 4 6 -7 -9 -12
-6 -14 18 -13 16 1 33 4 37 8 4 4 -2 6 -13 4 -12 -3 -20 1 -20 10 0 9 4 11 12
4 7 -6 16 -5 25 3 10 10 11 9 5 -2 -6 -11 -4 -13 10 -7 14 5 16 4 6 -7 -9 -12
-6 -14 18 -13 16 1 33 4 37 8 4 4 -2 6 -13 4 -12 -3 -20 1 -20 10 0 9 4 11 12
4 7 -6 16 -5 25 3 10 9 11 9 6 0 -9 -16 20 -18 29 -3 5 8 11 8 19 1 7 -6 17
-7 21 -3 5 4 5 2 1 -5 -3 -6 -15 -10 -25 -8 -10 2 -24 -1 -31 -5 -9 -6 -1 -7
20 -5 19 2 37 4 40 5 3 1 8 2 12 1 4 0 4 7 1 16 -5 12 -3 14 7 8 9 -5 11 -4 6
4 -4 6 -13 8 -19 4 -7 -3 -3 4 8 17 12 14 14 20 5 15 -13 -8 -13 -7 -1 8 10
13 10 17 1 17 -9 0 -10 3 -1 13 6 8 8 17 4 21 -12 12 -12 36 0 36 7 0 6 4 -2
9 -12 8 -12 12 -2 25 11 13 11 16 -3 16 -9 0 -16 4 -16 9 0 5 -8 8 -17 6 -10
-2 -18 -4 -18 -5 0 -1 -10 -3 -22 -4 -13 -2 -23 1 -23 5 0 9 -20 6 -37 -4 -8
-5 -13 -3 -13 4 0 8 -4 8 -15 -1 -9 -8 -15 -9 -15 -2 0 6 -9 9 -20 7 -22 -4
-36 10 -20 20 5 3 10 11 10 16 0 6 -6 7 -12 3 -10 -6 -10 -4 0 8 10 13 10 17
0 21 -10 4 -10 6 0 6 6 1 12 6 12 12 0 5 -4 8 -9 5 -5 -4 -8 2 -6 11 2 10 4
20 4 22 1 3 8 -4 17 -15 14 -18 14 -17 2 6 -7 14 -11 31 -10 38 2 6 -2 12 -8
12 -5 0 -10 5 -10 11 0 6 6 9 14 6 14 -6 17 16 4 29 -4 3 -4 12 -1 20 3 8 0
14 -6 14 -6 0 -11 5 -11 11 0 6 6 9 14 6 14 -6 17 16 4 29 -4 3 -4 12 -1 20 3
8 0 14 -6 14 -6 0 -11 5 -11 11 0 6 6 9 14 6 14 -6 17 16 4 29 -4 3 -4 12 -1
20 3 8 0 14 -6 14 -6 0 -11 5 -11 11 0 6 6 9 14 6 14 -6 17 16 4 29 -4 3 -4
12 -1 20 3 8 0 14 -6 14 -6 0 -11 5 -11 11 0 6 6 9 14 6 14 -6 17 16 4 29 -4
3 -4 12 -1 20 3 8 0 14 -6 14 -6 0 -11 5 -11 11 0 6 6 9 14 6 14 -6 17 16 4
29 -4 3 -4 12 -1 20 3 8 0 14 -6 14 -6 0 -11 5 -11 11 0 6 6 9 14 6 14 -6 17
16 4 29 -4 3 -4 12 -1 20 3 8 0 14 -6 14 -6 0 -11 5 -11 11 0 6 6 9 13 6 7 -3
12 4 12 18 0 16 -4 21 -15 17 -13 -5 -13 -3 -1 11 7 10 9 17 3 17 -6 0 -9 10
-8 23 2 20 -1 23 -21 19 -13 -2 -23 1 -23 7 0 6 -5 11 -11 11 -6 0 -8 -7 -4
-17 5 -14 3 -15 -6 -6 -6 6 -18 9 -27 6 -11 -5 -13 -3 -7 8 5 8 -2 5 -15 -6
-13 -11 -20 -15 -17 -9 4 7 0 15 -9 18 -9 4 -13 2 -8 -5 4 -7 1 -10 -7 -7 -8
3 -13 11 -11 17 1 7 -2 10 -8 6 -6 -3 -8 -11 -5 -16 4 -5 -1 -9 -10 -9 -9 0
-14 4 -10 10 3 5 -8 5 -26 -2 -25 -8 -33 -8 -40 3 -7 11 -9 9 -9 -6 -1 -15 -4
-13 -14 10 -10 25 -13 26 -19 12 -5 -13 -3 -16 6 -11 8 6 8 3 -1 -8 -14 -17
-42 -14 -42 4 0 5 -5 6 -10 3 -6 -4 -7 -11 -4 -17 5 -7 2 -8 -5 -4 -7 5 -16
18 -21 30 -8 18 -9 19 -9 2z m-31 -180 c0 -2 -8 -10 -17 -17 -16 -13 -17 -12
-4 4 13 16 21 21 21 13z m435 -14 c-3 -3 -11 0 -18 7 -9 10 -8 11 6 5 10 -3
15 -9 12 -12z m0 -160 c-3 -3 -11 0 -18 7 -9 10 -8 11 6 5 10 -3 15 -9 12 -12z
m0 -160 c-3 -3 -11 0 -18 7 -9 10 -8 11 6 5 10 -3 15 -9 12 -12z m0 -160 c-3
-3 -11 0 -18 7 -9 10 -8 11 6 5 10 -3 15 -9 12 -12z m-435 -382 c0 -5 -2 -10
-4 -10 -3 0 -8 5 -11 10 -3 6 -1 10 4 10 6 0 11 -4 11 -10z m44 -25 c3 3 1 -1
-4 -7 -9 -10 -13 -10 -20 2 -8 12 -10 13 -10 1 0 -8 -3 -12 -6 -8 -12 12 7 28
20 18 7 -6 16 -9 20 -6z m126 -5 c-18 -12 -30 -13 -30 -2 0 4 10 9 22 9 18 2
20 0 8 -7z"/>
<path d="M2263 1757 c0 -8 6 -14 14 -14 9 0 10 4 2 14 -6 7 -12 13 -14 13 -1
0 -2 -6 -2 -13z"/>
<path d="M2347 1757 c-5 -13 -3 -16 6 -11 8 6 8 3 -1 -8 -14 -17 -42 -14 -42
4 0 5 -5 6 -10 3 -6 -4 -7 -12 -3 -18 5 -8 2 -8 -9 0 -8 7 -18 10 -22 6 -12
-12 -48 -10 -53 4 -3 7 -10 13 -15 13 -6 0 -7 -8 -3 -17 5 -14 3 -15 -6 -6 -6
6 -18 9 -25 6 -9 -3 -14 2 -14 13 0 16 -2 16 -9 4 -6 -8 -7 -18 -4 -24 3 -5 1
-6 -6 -2 -6 4 -9 11 -7 15 3 4 -1 8 -9 8 -8 0 -11 -5 -8 -10 3 -5 0 -7 -8 -5
-8 3 -13 10 -12 16 2 6 -4 9 -12 6 -8 -4 -15 -10 -15 -16 0 -5 5 -6 12 -2 7 5
8 3 3 -6 -6 -10 -11 -10 -20 3 -16 22 -29 22 -20 0 5 -14 3 -15 -6 -6 -6 6
-18 9 -27 6 -11 -5 -13 -3 -7 8 4 8 5 11 0 7 -4 -4 -15 -2 -23 5 -13 10 -14 9
-7 -2 6 -11 4 -13 -9 -8 -9 4 -15 3 -11 -3 9 -15 -38 -8 -60 9 -16 13 -18 13
-9 1 14 -20 11 -46 -5 -42 -7 1 -10 -2 -6 -8 3 -6 11 -7 17 -4 7 5 8 2 3 -6
-13 -21 -13 -70 -1 -70 6 0 5 -4 -3 -9 -9 -6 -10 -10 -2 -16 9 -5 9 -10 1 -20
-7 -9 -6 -20 5 -41 8 -16 15 -23 15 -16 0 6 5 12 11 12 5 0 8 -4 5 -8 -3 -5 1
-9 9 -9 8 0 12 4 10 8 -3 4 6 6 20 5 14 0 25 -5 25 -11 0 -5 4 -4 9 4 5 8 14
10 22 5 18 -11 49 -13 43 -2 -3 4 0 8 5 8 6 0 11 -4 11 -8 0 -5 7 -9 15 -9 8
0 12 4 9 9 -3 4 0 8 5 8 6 0 11 -5 11 -11 0 -8 4 -8 13 0 10 8 17 7 27 -2 9
-8 11 -8 6 0 -5 10 12 11 34 3 3 -1 7 -2 10 -2 3 0 5 -12 5 -28 1 -16 -3 -26
-7 -24 -5 3 -6 10 -3 15 4 5 2 9 -3 9 -5 0 -9 -15 -9 -32 0 -18 2 -27 5 -20 5
17 19 15 19 -3 0 -8 -4 -15 -9 -15 -4 0 -8 -7 -8 -15 0 -8 5 -15 11 -15 6 0 3
-7 -6 -16 -9 -9 -13 -19 -10 -22 3 -4 10 0 15 8 7 11 9 9 7 -8 -1 -12 -6 -21
-12 -18 -6 2 -10 -10 -10 -30 0 -34 9 -44 19 -21 3 6 3 -1 1 -18 -3 -16 -9
-31 -15 -33 -5 -2 -10 -8 -10 -13 0 -4 8 -5 18 -2 15 6 15 5 3 -10 -11 -14
-12 -23 -3 -43 10 -20 9 -26 -3 -30 -8 -4 -12 -10 -9 -15 3 -5 10 -6 16 -3 7
4 8 2 4 -5 -4 -6 -11 -9 -16 -6 -5 3 -12 0 -16 -6 -4 -8 -3 -9 4 -5 6 4 16 -4
23 -16 10 -20 10 -21 -2 -11 -11 9 -14 7 -14 -13 0 -26 10 -32 19 -11 3 6 3
-1 1 -18 -3 -16 -9 -31 -15 -33 -5 -2 -10 -8 -10 -13 0 -4 8 -5 18 -2 15 6 15
5 3 -10 -11 -14 -12 -23 -3 -43 10 -20 9 -26 -3 -30 -8 -4 -12 -10 -9 -15 3
-5 10 -6 16 -3 7 4 8 2 4 -5 -4 -6 -11 -9 -16 -6 -5 3 -12 0 -16 -6 -4 -8 -3
-9 4 -5 6 4 16 -4 23 -16 10 -20 10 -21 -2 -11 -11 9 -14 7 -14 -13 0 -26 10
-32 18 -11 3 6 4 -2 3 -18 -2 -36 -14 -58 -27 -50 -5 4 -4 -5 3 -19 6 -14 16
-26 21 -26 5 0 3 -8 -4 -17 -13 -17 -12 -17 5 -3 24 19 43 21 56 5 13 -15 -5
-16 -29 -1 -9 6 -12 5 -7 -2 3 -5 0 -12 -6 -15 -7 -2 6 -3 30 -3 29 1 41 5 38
13 -3 7 0 15 6 19 7 4 8 3 4 -4 -4 -7 -3 -12 3 -12 5 0 13 5 17 11 4 8 9 8 17
0 7 -7 15 -7 26 1 11 8 10 5 -2 -8 -14 -15 -20 -16 -26 -6 -6 11 -10 11 -19 0
-8 -11 -3 -13 28 -13 21 0 36 3 34 7 -8 12 10 10 23 -3 8 -8 13 -7 18 2 5 8 4
10 -3 5 -7 -4 -12 -1 -12 9 0 10 5 13 12 9 8 -5 9 -2 4 11 -5 15 -4 16 8 6 11
-9 16 -9 22 0 4 8 3 9 -4 5 -15 -9 -15 -1 -2 24 7 13 7 21 -2 26 -6 4 -8 3 -4
-4 3 -6 1 -14 -6 -18 -7 -4 -10 -4 -6 1 4 4 3 14 -3 21 -7 8 -6 14 2 20 8 4 9
3 5 -4 -5 -8 -1 -10 10 -5 11 4 13 8 6 11 -16 5 -15 32 1 32 8 0 8 3 2 8 -6 4
-12 23 -13 43 -2 19 -5 44 -6 55 -2 10 -1 24 3 29 9 16 11 45 3 45 -12 0 -1
74 12 83 7 5 5 7 -6 5 -9 -2 -17 0 -17 4 -1 14 13 43 23 50 8 5 8 8 0 8 -5 0
-11 17 -12 38 -2 20 -4 46 -6 57 -2 11 -1 25 3 30 9 16 11 45 3 45 -4 0 -6 18
-4 40 2 22 8 40 14 40 5 0 6 5 2 11 -5 8 -9 8 -14 -1 -5 -9 -9 -9 -14 -1 -4 6
-2 11 4 11 8 0 10 18 8 54 -4 50 -3 54 14 45 14 -8 16 -6 11 8 -6 16 -5 17 12
3 11 -9 16 -10 11 -2 -4 6 -2 12 3 12 6 0 11 -6 11 -12 0 -8 3 -9 8 -3 10 14
42 15 42 1 0 -6 5 -4 10 4 8 13 10 13 10 1 0 -11 4 -10 16 5 8 10 13 14 10 7
-4 -6 -2 -14 4 -18 12 -7 14 204 2 220 -4 6 -16 11 -27 13 l-20 4 20 -17 c20
-16 20 -16 -1 -6 -15 7 -25 7 -34 -2 -9 -8 -11 -8 -7 -1 4 7 0 15 -9 18 -9 4
-13 2 -8 -5 4 -7 1 -10 -7 -7 -8 3 -13 11 -11 17 1 7 -2 10 -8 6 -6 -3 -8 -11
-5 -16 4 -5 -1 -9 -10 -9 -9 0 -14 4 -10 10 3 5 -8 5 -26 -2 -25 -8 -33 -8
-40 3 -7 11 -9 9 -9 -6 -1 -15 -4 -13 -14 10 -10 25 -13 26 -19 12z m80 -612
c0 -8 -4 -12 -9 -9 -5 3 -6 10 -3 15 9 13 12 11 12 -6z m0 -320 c0 -8 -4 -12
-9 -9 -5 3 -6 10 -3 15 9 13 12 11 12 -6z m-223 -111 c3 -8 2 -12 -4 -9 -6 3
-10 10 -10 16 0 14 7 11 14 -7z"/>
<path d="M165 1750 c-3 -6 1 -7 9 -4 18 7 21 14 7 14 -6 0 -13 -4 -16 -10z"/>
<path d="M1285 1750 c-3 -6 1 -7 9 -4 18 7 21 14 7 14 -6 0 -13 -4 -16 -10z"/>
<path d="M2405 1750 c-3 -6 1 -7 9 -4 18 7 21 14 7 14 -6 0 -13 -4 -16 -10z"/>
<path d="M2220 1742 c0 -4 9 -8 19 -8 11 0 17 4 15 8 -3 4 -12 8 -20 8 -8 0
-14 -4 -14 -8z"/>
<path d="M1603 1733 c-17 -6 -17 -20 0 -20 8 0 14 6 14 14 0 7 -1 13 -1 12 -1
0 -7 -3 -13 -6z"/>
<path d="M830 1530 c-9 -6 -10 -10 -3 -10 6 0 15 5 18 10 8 12 4 12 -15 0z"/>
<path d="M2170 1510 c0 -5 5 -10 11 -10 5 0 7 5 4 10 -3 6 -8 10 -11 10 -2 0
-4 -4 -4 -10z"/>
<path d="M2435 1480 c3 -5 8 -10 11 -10 2 0 4 5 4 10 0 6 -5 10 -11 10 -5 0
-7 -4 -4 -10z"/>
<path d="M2176 1248 c3 -5 10 -6 15 -3 13 9 11 12 -6 12 -8 0 -12 -4 -9 -9z"/>
<path d="M2433 1245 c0 -8 4 -15 9 -15 4 0 8 4 8 9 0 6 -4 12 -8 15 -5 3 -9
-1 -9 -9z"/>
<path d="M2425 1090 c-3 -6 1 -7 9 -4 18 7 21 14 7 14 -6 0 -13 -4 -16 -10z"/>
<path d="M2176 1008 c3 -5 10 -6 15 -3 13 9 11 12 -6 12 -8 0 -12 -4 -9 -9z"/>
<path d="M2433 925 c0 -8 4 -15 9 -15 4 0 8 4 8 9 0 6 -4 12 -8 15 -5 3 -9 -1
-9 -9z"/>
<path d="M2170 775 c0 -2 6 -8 13 -14 10 -8 14 -7 14 2 0 8 -6 14 -14 14 -7 0
-13 -1 -13 -2z"/>
<path d="M750 759 c0 -5 5 -7 10 -4 6 3 10 8 10 11 0 2 -4 4 -10 4 -5 0 -10
-5 -10 -11z"/>
</g>
</svg>
